PathFileType  4	(X/Y/Z) C:\Users\antoi\Documents\MyRepositories\mobilecap\ResultsAnalysis
DataRate	CameraRate	NumFrames	NumMarkers	Units	OrigDataRate	OrigDataStartFrame	OrigNumFrames
100.0	100.0	4	51	mm	100.0	185	295
Frame#	Time	r_knee			r_shank_antsup			r_ankle			r_calc			r_5meta			r_toe			L_knee			L_shank_antsup			L_ankle			L_calc			L_5meta			L_toe			r_sh2			r_sh3			r_sh4			L_sh2			L_sh3			r_thigh1			r_thigh2			r_thigh3			r_thigh4			r_thigh5			L_thigh1			L_thigh2			L_thigh3			L_thigh4			r.ASIS			r.PSIS			L.ASIS			L.PSIS			C7			R_Shoulder			L_Shoulder			R_Sternum			L_Sternum			R_humerus			R_elbow_med			R_elbow_lat			R_forearm			R_wrist_radius			R_wrist_ulna			L_humerus			L_elbow_med			L_elbow_lat			L_forearm			L_wrist_radius			L_wrist_ulna			R_HJC			L_HJC			R_HJC_reg			L_HJC_reg			
		X1	Y1	Z1	X2	Y2	Z2	X3	Y3	Z3	X4	Y4	Z4	X5	Y5	Z5	X6	Y6	Z6	X7	Y7	Z7	X8	Y8	Z8	X9	Y9	Z9	X10	Y10	Z10	X11	Y11	Z11	X12	Y12	Z12	X13	Y13	Z13	X14	Y14	Z14	X15	Y15	Z15	X16	Y16	Z16	X17	Y17	Z17	X18	Y18	Z18	X19	Y19	Z19	X20	Y20	Z20	X21	Y21	Z21	X22	Y22	Z22	X23	Y23	Z23	X24	Y24	Z24	X25	Y25	Z25	X26	Y26	Z26	X27	Y27	Z27	X28	Y28	Z28	X29	Y29	Z29	X30	Y30	Z30	X31	Y31	Z31	X32	Y32	Z32	X33	Y33	Z33	X34	Y34	Z34	X35	Y35	Z35	X36	Y36	Z36	X37	Y37	Z37	X38	Y38	Z38	X39	Y39	Z39	X40	Y40	Z40	X41	Y41	Z41	X42	Y42	Z42	X43	Y43	Z43	X44	Y44	Z44	X45	Y45	Z45	X46	Y46	Z46	X47	Y47	Z47	X48	Y48	Z48	X49	Y49	Z49	X50	Y50	Z50	X51	Y51	Z51	

185	1.84000000	-57.25776	478.75266	-363.98243	-38.08794	353.75681	-392.50246	-273.46674	123.90847	-468.39259	-339.90623	103.98323	-543.34495	-185.37758	40.71380	-401.45560	-119.40503	56.94800	-457.22731	-3.80993	480.62973	-859.01772	22.24553	367.27903	-832.51319	-233.01515	127.54417	-828.13791	-313.97230	118.36564	-773.00436	-125.27840	36.15592	-844.56098	-87.88068	54.00351	-775.20626	-86.56591	259.50171	-437.26364	-103.78148	365.89859	-355.09999	-150.80909	262.76231	-383.89509	-45.13384	403.47937	-883.92645	-86.90288	290.35168	-887.60847	-205.74475	669.31852	-435.92094	-105.30296	627.60345	-413.04461	-105.43366	589.65470	-358.31510	-252.18516	598.63304	-358.26031	-142.49085	548.56949	-348.94417	-186.00378	667.60528	-833.65379	-57.56484	618.24043	-843.21545	-224.47219	578.85068	-891.09652	-97.86013	525.82642	-894.67104	-329.26505	713.66463	-501.44938	-420.67527	810.19599	-586.52707	-281.80183	694.78256	-755.76684	-406.00016	810.63010	-684.52383	104.92917	940.84562	-561.15649	73.37779	851.08707	-400.63959	150.72295	860.96015	-682.90261	86.45135	769.95486	-531.06800	92.25356	770.11094	-577.10324	54.40011	741.60097	-303.64087	-61.40172	543.00874	-240.93726	-12.69081	587.25738	-182.08370	124.97988	484.56661	-220.95970	202.80267	404.51970	-236.21143	195.74334	387.29181	-198.66577	214.95204	751.19775	-737.49720	206.92160	525.92198	-781.40822	276.01666	567.94740	-800.66096	360.35158	514.48782	-659.67424	441.34189	457.47723	-599.42685	457.06050	433.96028	-636.76447	-411.42521	668.20827	-538.99742	-385.73021	653.25630	-750.30459	-412.59515	670.55960	-550.85103	-387.24009	671.30960	-720.16607	
186	1.85000000	-56.20725	480.35983	-363.44204	-37.14057	355.36725	-391.58016	-272.19242	125.68769	-468.29311	-338.54840	106.68399	-543.68228	-184.97540	41.33793	-401.82192	-118.66185	57.26120	-457.26561	-1.29778	482.04355	-856.16888	24.33877	368.75134	-829.79184	-231.41598	129.71479	-826.52966	-312.54745	121.12226	-771.79622	-124.76454	37.43020	-843.67480	-87.09213	54.66855	-774.73044	-85.37273	260.95920	-436.90659	-102.90096	367.50967	-354.62118	-149.66201	264.15821	-383.97509	-43.00615	404.82282	-880.93088	-84.79670	292.16886	-885.32235	-203.96892	671.75361	-435.02082	-103.44739	629.51979	-412.25599	-103.90444	591.45985	-357.28852	-250.67213	600.88653	-357.94765	-141.17650	550.47922	-348.31120	-182.80673	669.57490	-832.21568	-54.59800	619.86811	-840.88899	-221.23553	580.74077	-889.54788	-94.74394	527.53398	-892.73082	-327.19283	716.57002	-500.29526	-418.65694	813.46750	-586.73993	-278.15809	696.75415	-754.15927	-403.88699	813.85183	-684.77382	106.20804	946.38827	-561.27465	74.84136	857.88370	-400.72559	152.73006	866.54883	-681.69670	88.47522	775.97118	-530.12537	94.30812	775.80753	-576.56177	54.96286	747.99552	-303.79543	-58.76085	547.16009	-244.63100	-10.70040	591.59418	-184.64974	129.19219	493.80756	-227.49765	208.96916	417.01576	-245.05154	203.25937	398.34087	-208.21988	216.19662	756.46335	-735.93063	207.45221	530.46059	-778.02905	276.75048	572.08810	-797.85406	360.55445	520.96039	-655.85155	441.04416	465.14071	-594.28775	457.30513	441.11626	-631.22640	-409.56656	671.45143	-538.37817	-382.46925	655.57704	-749.44638	-410.01371	673.31114	-549.60740	-384.51601	673.97452	-718.84358	
187	1.86000000	-55.18360	481.90259	-362.77470	-36.31990	357.04216	-390.63706	-271.02250	127.41115	-468.13296	-337.21031	109.28293	-544.05649	-184.58961	41.94537	-402.18826	-118.06951	57.54907	-457.27650	1.21674	483.70394	-853.14120	26.37307	370.31729	-826.89669	-229.78771	132.04610	-825.16221	-311.11047	123.91317	-770.51527	-124.26096	38.77701	-842.89773	-86.38006	55.21776	-774.09283	-84.23532	262.38409	-436.78043	-102.14753	369.09480	-354.08964	-148.43043	265.25907	-384.27548	-40.73639	406.75334	-878.11491	-82.79807	294.12585	-883.02928	-201.92964	674.34564	-434.13076	-101.55457	631.58055	-411.18901	-102.33065	593.64656	-355.96008	-249.11120	603.37504	-357.67535	-139.81246	552.53359	-347.50253	-179.65576	671.99323	-831.47318	-51.69316	621.73404	-838.46282	-218.03252	582.97296	-888.02851	-91.67570	529.35460	-890.19859	-324.62225	719.70333	-499.53941	-416.52100	817.19980	-587.05097	-274.72932	699.37518	-753.11052	-401.64981	817.42612	-685.11987	107.26922	952.77734	-561.04391	76.13693	865.31011	-400.56244	154.34062	872.73462	-679.82776	90.51359	782.60075	-529.08343	96.38841	782.38053	-575.74070	55.27228	755.10260	-304.35821	-57.92356	552.90645	-247.79510	-10.11138	596.99187	-187.01829	131.41007	503.68800	-233.78744	212.67631	429.61491	-253.43264	208.12438	409.92434	-217.10976	217.07300	761.64438	-734.66298	206.64699	535.64993	-776.33655	276.26604	576.78240	-796.67295	359.03471	526.65136	-653.48442	438.77604	471.31479	-590.85951	455.48240	446.89522	-627.32296	-407.33273	674.99003	-538.03293	-379.34576	658.46432	-748.93773	-407.29798	676.59764	-548.81335	-381.64706	676.98828	-717.97025	
188	1.87000000	-54.29933	483.45363	-361.83796	-35.39237	358.60379	-390.06261	-269.95730	129.11641	-467.82355	-335.87817	111.75211	-544.33943	-184.19541	42.53397	-402.40103	-117.58649	57.85946	-457.23207	3.61081	485.40635	-849.90091	28.32266	371.94554	-823.84231	-228.33680	134.32773	-824.04385	-309.68723	126.60752	-769.18510	-123.71661	40.17236	-842.30306	-85.62153	55.75014	-773.31221	-83.08875	263.74103	-436.21845	-101.43661	370.62856	-353.36674	-147.47115	266.54077	-384.09365	-38.29180	409.12381	-875.67770	-80.79914	296.28447	-881.13232	-199.57812	677.09426	-433.21469	-99.62257	633.66714	-410.11492	-101.07743	596.14589	-354.43699	-247.56935	606.10474	-357.25598	-138.54496	554.76250	-346.62754	-176.62012	674.96261	-831.39453	-48.80148	623.63549	-835.54536	-214.82637	585.54397	-886.56588	-88.72111	531.39531	-887.48688	-321.64221	723.21313	-498.77919	-414.34297	821.31055	-587.26733	-271.00338	702.83547	-752.10752	-399.23123	821.36683	-685.40408	108.00727	959.95084	-560.51686	77.15187	873.22429	-399.96701	156.00696	880.02489	-678.66670	92.45548	789.71819	-528.19017	98.45848	789.57245	-574.74907	55.37706	762.55951	-304.96734	-58.88599	559.95757	-250.34920	-11.01911	603.34450	-189.05263	131.78748	514.09561	-239.42818	214.10902	442.30146	-260.87724	210.63673	422.11589	-224.63658	217.44068	767.00004	-733.99062	204.67997	541.44162	-776.38748	274.80798	582.00491	-796.81926	355.97069	531.29042	-652.51088	434.79480	475.75725	-589.16444	451.86488	451.19776	-625.40030	-404.64051	678.80098	-537.74167	-375.78686	661.91099	-748.49716	-404.26705	680.30785	-548.17252	-378.23736	680.40511	-717.21476	
